<svg xmlns="http://www.w3.org/2000/svg" viewBox="0 0 128 128">
  <path fill="#424242" d="M25 24h78a12 12 0 0 1 12 12v56a12 12 0 0 1-12 12H25A12 12 0 0 1 13 92V36a12 12 0 0 1 12-12Zm0 10a2 2 0 0 0-2 2v56a2 2 0 0 0 2 2h78a2 2 0 0 0 2-2V36a2 2 0 0 0-2-2H25Z"/>
  <path fill="#424242" d="M55 79c-4 3-9 5-15 5-13 0-23-9-23-21s10-21 23-21c6 0 11 2 15 5l-7 9c-2-2-5-3-8-3-6 0-11 4-11 10s5 10 11 10c3 0 6-1 8-3l7 9Zm44 0c-4 3-9 5-15 5-13 0-23-9-23-21s10-21 23-21c6 0 11 2 15 5l-7 9c-2-2-5-3-8-3-6 0-11 4-11 10s5 10 11 10c3 0 6-1 8-3l7 9Z"/>
</svg>
